<svg xmlns="http://www.w3.org/2000/svg" width="100" height="100" viewBox="0 0 100 100">
  <g id="그룹_183" data-name="그룹 183" transform="translate(-2189 329)">
    <rect id="사각형_81" data-name="사각형 81" width="100" height="100" transform="translate(2189 -329)" fill="none"/>
    <g id="그룹_171" data-name="그룹 171" transform="translate(-0.35 2.03)">
      <path id="패스_119" data-name="패스 119" d="M384.826,230.828H377.31v-3.037h7.516c.919,0,2.278-1.86,2.278-4.775V207.292c0-2.915-1.321-4.775-2.278-4.775H377.31V199.48h7.516c2.961,0,5.314,3.432,5.314,7.812v15.723C390.1,227.4,387.787,230.828,384.826,230.828Z" transform="translate(1879.24 -490.868)" fill="#565976"/>
      <path id="패스_120" data-name="패스 120" d="M365.483,179.348a9.437,9.437,0,0,1-16.285,6.484,10.955,10.955,0,0,1-17.743,0,9.445,9.445,0,1,1,0-12.96,10.948,10.948,0,0,1,17.743,0,9.429,9.429,0,0,1,16.293,6.476Z" transform="translate(1894.21 -483.37)" fill="none" stroke="#565976" stroke-width="1"/>
      <path id="빼기_11" data-name="빼기 11" d="M37.741,49.114H6.286a5.981,5.981,0,0,1-4.438-2.022A7.179,7.179,0,0,1,0,42.227V.044A9.412,9.412,0,0,0,2.793,1.766a9.4,9.4,0,0,0,3.484.667A9.426,9.426,0,0,0,12.607,0h.954a11.026,11.026,0,0,0,3.775,2.943A11.023,11.023,0,0,0,22.021,4a11.025,11.025,0,0,0,4.686-1.053A11.026,11.026,0,0,0,30.482,0h.957a9.419,9.419,0,0,0,6.3,2.413,9.39,9.39,0,0,0,3.489-.67,9.4,9.4,0,0,0,2.8-1.736v42.22C44.035,46.024,41.211,49.114,37.741,49.114Z" transform="translate(2212.516 -297.006)" fill="#565976"/>
    </g>
  </g>
</svg>
