<svg xmlns="http://www.w3.org/2000/svg" width="83" height="114.971" viewBox="0 0 83 114.971">
  <g id="그룹_93" data-name="그룹 93" transform="translate(-237 -481.223)">
    <rect id="사각형_21" data-name="사각형 21" width="83" height="15" transform="translate(237 492)" fill="#585a79"/>
    <path id="패스_43" data-name="패스 43" d="M5.544,0H64.683l5.544,12.29H0Z" transform="translate(243 481.223)" fill="#585a79"/>
    <path id="제외_1" data-name="제외 1" d="M66.865,35.113H5.031C3.089,32.642,1.4,25.632.505,16.36-.281,8.2-.135,1.3.845.321A1.967,1.967,0,0,1,1.665,0h68.6a1.919,1.919,0,0,1,.806.321c.982.982,1.108,7.886.292,16.06-.923,9.255-2.6,16.257-4.5,18.731ZM36.873,5.268A12.289,12.289,0,1,0,49.162,17.557,12.3,12.3,0,0,0,36.873,5.268Z" transform="translate(243 529.137)" fill="#585a79"/>
    <path id="빼기_8" data-name="빼기 8" d="M35.773,88.125a103.035,103.035,0,0,1-14.7-.955c-4.537-.684-7.575-1.687-8.786-2.9-1.618-1.618-3.577-10.478-5.821-26.334H65.444c-2.252,15.912-4.187,24.771-5.75,26.334-1.193,1.193-4.276,2.189-8.916,2.881A106.3,106.3,0,0,1,35.773,88.125ZM70.067,19.312H1.882C.746,8.319.007.08,0,0H71.983c0,.01-.008.109-.026.292-.55,5.88-1.221,12.635-1.891,19.018Z" transform="translate(243 508.069)" fill="#585a79"/>
  </g>
</svg>
