<svg xmlns="http://www.w3.org/2000/svg" width="96.755" height="91.267" viewBox="0 0 96.755 91.267">
  <g id="그룹_43" data-name="그룹 43" transform="translate(-549.7 -78.769)">
    <path id="패스_59" data-name="패스 59" d="M48.378,0C75.1,0,96.755,19.993,96.755,44.656S75.1,89.313,48.378,89.313,0,69.319,0,44.656,21.659,0,48.378,0Z" transform="translate(549.7 79.746)" fill="#585a79"/>
    <g id="패스_60" data-name="패스 60" transform="translate(555.124 78.769)" fill="#fff">
      <path d="M 45.6657829284668 90.76660919189453 C 39.56817245483398 90.76660919189453 33.65322875976562 89.57334899902344 28.08525276184082 87.21996307373047 C 22.70699501037598 84.94676971435547 17.87673568725586 81.69239807128906 13.72863006591797 77.5472412109375 C 9.580547332763672 73.40211486816406 6.323888778686523 68.57532501220703 4.049100399017334 63.20094680786133 C 1.694088816642761 57.63704299926758 0.5000064373016357 51.7264289855957 0.5000064373016357 45.63330078125 C 0.5000064373016357 39.5401725769043 1.694088816642761 33.62955856323242 4.049100399017334 28.06565284729004 C 6.323888778686523 22.6912899017334 9.580547332763672 17.86448860168457 13.72863006591797 13.7193717956543 C 17.87673568725586 9.57421875 22.70699501037598 6.319841861724854 28.08525276184082 4.046653747558594 C 33.65322875976562 1.693265438079834 39.56817245483398 0.5000066757202148 45.6657829284668 0.5000066757202148 C 51.76338195800781 0.5000066757202148 57.67832565307617 1.693265438079834 63.24629974365234 4.046653747558594 C 68.62455749511719 6.319841861724854 73.45482635498047 9.57421875 77.60293579101562 13.7193717956543 C 81.75101470947266 17.86450004577637 85.0076904296875 22.6912899017334 87.28247833251953 28.06565284729004 C 89.63747406005859 33.62955856323242 90.83157348632812 39.5401725769043 90.83157348632812 45.63330078125 C 90.83157348632812 51.7264289855957 89.63747406005859 57.63704299926758 87.28247833251953 63.20094680786133 C 85.0076904296875 68.57532501220703 81.75101470947266 73.40211486816406 77.60293579101562 77.5472412109375 C 73.45482635498047 81.69239807128906 68.62455749511719 84.94676971435547 63.24629974365234 87.21996307373047 C 57.67832565307617 89.57334899902344 51.76338195800781 90.76660919189453 45.6657829284668 90.76660919189453 Z" stroke="none"/>
      <path d="M 45.6657829284668 1 C 39.63540649414062 1 33.78595733642578 2.179985046386719 28.2799186706543 4.5072021484375 C 22.96124267578125 6.755203247070312 18.18439483642578 9.973609924316406 14.08205413818359 14.07303619384766 C 9.979759216308594 18.17241668701172 6.75909423828125 22.94578552246094 4.509544372558594 28.26055145263672 C 2.1807861328125 33.762451171875 0.9999923706054688 39.60748672485352 0.9999923706054688 45.63330078125 C 0.9999923706054688 51.65911483764648 2.1807861328125 57.504150390625 4.509544372558594 63.00605010986328 C 6.75909423828125 68.32081604003906 9.979759216308594 73.09419250488281 14.08205413818359 77.19356536865234 C 18.18439483642578 81.29298400878906 22.96124267578125 84.51139831542969 28.2799186706543 86.7593994140625 C 33.78595733642578 89.08661651611328 39.63540649414062 90.2666015625 45.6657829284668 90.2666015625 C 51.69615936279297 90.2666015625 57.54560852050781 89.08661651611328 63.05164337158203 86.7593994140625 C 68.37032318115234 84.51139831542969 73.14717102050781 81.29298400878906 77.24951171875 77.19356536865234 C 81.351806640625 73.09419250488281 84.57247161865234 68.32081604003906 86.822021484375 63.00605010986328 C 89.15077972412109 57.504150390625 90.33157348632812 51.65911483764648 90.33157348632812 45.63330078125 C 90.33157348632812 39.60748672485352 89.15077972412109 33.762451171875 86.822021484375 28.26055145263672 C 84.57247161865234 22.94578552246094 81.351806640625 18.17241668701172 77.24951171875 14.07303619384766 C 73.14717102050781 9.973609924316406 68.37032318115234 6.755203247070312 63.05164337158203 4.5072021484375 C 57.54560852050781 2.179985046386719 51.69615936279297 1 45.6657829284668 1 M 45.6657829284668 0 C 70.88629150390625 0 91.33157348632812 20.43072509765625 91.33157348632812 45.63330078125 C 91.33157348632812 70.83587646484375 70.88629150390625 91.2666015625 45.6657829284668 91.2666015625 C 20.44526672363281 91.2666015625 -7.62939453125e-06 70.83587646484375 -7.62939453125e-06 45.63330078125 C -7.62939453125e-06 20.43072509765625 20.44526672363281 0 45.6657829284668 0 Z" stroke="none" fill="#585a79"/>
    </g>
    <ellipse id="타원_13" data-name="타원 13" cx="40" cy="40.5" rx="40" ry="40.5" transform="translate(560.39 84.007)" fill="#585a79"/>
    <text id="_" data-name="￦" transform="translate(579.39 149.007)" fill="none" stroke="#fff" stroke-width="1" font-size="57" font-family=".AppleSDGothicNeoI-Bold, '.AppleKoreanFont'" font-weight="700"><tspan x="0" y="0">￦</tspan></text>
  </g>
</svg>
