<svg xmlns="http://www.w3.org/2000/svg" width="100" height="100" viewBox="0 0 100 100">
  <g id="그룹_187" data-name="그룹 187" transform="translate(-2533 206)">
    <rect id="사각형_95" data-name="사각형 95" width="100" height="100" transform="translate(2533 -206)" fill="none"/>
    <g id="그룹_174" data-name="그룹 174" transform="translate(1999.3 -266.769)">
      <path id="패스_59" data-name="패스 59" d="M33.924,0C52.66,0,67.849,14.02,67.849,31.315S52.66,62.63,33.924,62.63,0,48.61,0,31.315,15.189,0,33.924,0Z" transform="translate(549.7 79.454)" fill="#585a79"/>
      <g id="패스_60" data-name="패스 60" transform="translate(553.503 78.769)" fill="#fff">
        <path d="M 32.02275848388672 63.49996185302734 C 27.76694869995117 63.49996185302734 23.63870811462402 62.66716003417969 19.75271797180176 61.02469253540039 C 15.99905872344971 59.43815994262695 12.62782859802246 57.16680145263672 9.732678413391113 54.27370071411133 C 6.83754825592041 51.38063049316406 4.564598560333252 48.0118522644043 2.976958513259888 44.26092147827148 C 1.333368539810181 40.37779998779297 0.4999984800815582 36.25263214111328 0.4999984800815582 31.99998092651367 C 0.4999984800815582 27.7473316192627 1.333368539810181 23.62216186523438 2.976958513259888 19.73904037475586 C 4.564598560333252 15.98811054229736 6.83754825592041 12.61933135986328 9.732678413391113 9.726261138916016 C 12.62782859802246 6.833160877227783 15.99905872344971 4.561800956726074 19.75271797180176 2.975270986557007 C 23.63870811462402 1.332800984382629 27.76694869995117 0.5000009536743164 32.02275848388672 0.5000009536743164 C 36.27856826782227 0.5000009536743164 40.40680694580078 1.332800984382629 44.29279708862305 2.975270986557007 C 48.04645919799805 4.561800956726074 51.41769027709961 6.833160877227783 54.31283950805664 9.726261138916016 C 57.20796966552734 12.61933135986328 59.48091888427734 15.98811054229736 61.06855773925781 19.73904037475586 C 62.7121467590332 23.62216186523438 63.54551696777344 27.7473316192627 63.54551696777344 31.99998092651367 C 63.54551696777344 36.25263214111328 62.7121467590332 40.37779998779297 61.06855773925781 44.26092147827148 C 59.48091888427734 48.0118522644043 57.20796966552734 51.38063049316406 54.31283950805664 54.27370071411133 C 51.41769027709961 57.16680145263672 48.04645919799805 59.43815994262695 44.29279708862305 61.02469253540039 C 40.40680694580078 62.66716003417969 36.27856826782227 63.49996185302734 32.02275848388672 63.49996185302734 Z" stroke="none"/>
        <path d="M 32.02275848388672 1 C 27.83419036865234 1 23.77143859863281 1.819530487060547 19.94736862182617 3.435821533203125 C 16.2533073425293 4.997169494628906 12.93549728393555 7.232570648193359 10.08610916137695 10.07994079589844 C 7.236759185791016 12.92724990844727 4.99981689453125 16.24261093139648 3.437408447265625 19.93392944335938 C 1.820056915283203 23.75505065917969 1 27.81465911865234 1 31.99998092651367 C 1 36.185302734375 1.820056915283203 40.24491119384766 3.437408447265625 44.06603240966797 C 4.99981689453125 47.75735092163086 7.236759185791016 51.07271194458008 10.08610916137695 53.92002105712891 C 12.93549728393555 56.76739120483398 16.2533073425293 59.00279235839844 19.94736862182617 60.56414031982422 C 23.77143859863281 62.1804313659668 27.83419036865234 62.99996185302734 32.02275848388672 62.99996185302734 C 36.21132659912109 62.99996185302734 40.27407836914062 62.1804313659668 44.09814834594727 60.56414031982422 C 47.79220581054688 59.00279235839844 51.11001968383789 56.76739120483398 53.95940780639648 53.92002105712891 C 56.80875778198242 51.07271194458008 59.04570007324219 47.75735092163086 60.60810852050781 44.06603240966797 C 62.22546005249023 40.24491119384766 63.04551696777344 36.185302734375 63.04551696777344 31.99998092651367 C 63.04551696777344 27.81465911865234 62.22546005249023 23.75505065917969 60.60810852050781 19.93392944335938 C 59.04570007324219 16.24261093139648 56.80875778198242 12.92724990844727 53.95940780639648 10.07994079589844 C 51.11001968383789 7.232570648193359 47.79220581054688 4.997169494628906 44.09814834594727 3.435821533203125 C 40.27407836914062 1.819530487060547 36.21132659912109 1 32.02275848388672 1 M 32.02275848388672 0 C 49.70843887329102 0 64.04551696777344 14.32688140869141 64.04551696777344 31.99998092651367 C 64.04551696777344 49.67308044433594 49.70843887329102 63.99996185302734 32.02275848388672 63.99996185302734 C 14.33707809448242 63.99996185302734 0 49.67308044433594 0 31.99998092651367 C 0 14.32688140869141 14.33707809448242 0 32.02275848388672 0 Z" stroke="none" fill="#585a79"/>
      </g>
      <ellipse id="타원_13" data-name="타원 13" cx="28" cy="29" rx="28" ry="29" transform="translate(557.623 81.769)" fill="#585a79"/>
      <text id="_" data-name="￦" transform="translate(570.623 127.769)" fill="none" stroke="#fff" stroke-width="1" font-size="39" font-family=".AppleSDGothicNeoI-Bold, '.AppleKoreanFont'" font-weight="700"><tspan x="0" y="0">￦</tspan></text>
    </g>
  </g>
</svg>
