<svg xmlns="http://www.w3.org/2000/svg" width="100" height="100" viewBox="0 0 100 100">
  <g id="그룹_178" data-name="그룹 178" transform="translate(-2303 448)">
    <rect id="사각형_85" data-name="사각형 85" width="100" height="100" transform="translate(2303 -448)" fill="none"/>
    <g id="그룹_168" data-name="그룹 168" transform="translate(-4.2 7.01)">
      <path id="패스_130" data-name="패스 130" d="M456.44,125.69h-.92c-1.39,0-2.5-1.68-2.48-3.72l.46-38.82c0-2,1.13-3.6,2.48-3.6h0c1.36,0,2.46,1.61,2.48,3.6l.47,38.82C459,124,457.83,125.69,456.44,125.69Z" transform="translate(1887.2 -495.457)" fill="#565976"/>
      <path id="패스_131" data-name="패스 131" d="M484.89,122.069h-1.07a3.142,3.142,0,0,1-2.87-3.392l-.033-18.206a4.645,4.645,0,0,1,2.9-1.48h0c1.57,0,2.587-2.542,2.617-.71l1.323,20.4A3.149,3.149,0,0,1,484.89,122.069Z" transform="translate(1887.2 -491.077)" fill="#565976"/>
      <path id="패스_132" data-name="패스 132" d="M456,74.56a9,9,0,0,1-9-9V54.1h2V65.53a7.03,7.03,0,0,0,14.06,0V54.1h2V65.53A9,9,0,0,1,456,74.56Z" transform="translate(1887.2 -491.21)" fill="#565976"/>
      <rect id="사각형_92" data-name="사각형 92" width="2" height="26.21" transform="translate(2342.18 -437.11)" fill="#565976"/>
      <path id="패스_133" data-name="패스 133" d="M480,50.2l.45,50.58S507.92,93,480,50.2Z" transform="translate(1887.2 -491.21)" fill="none" stroke="#565976" stroke-width="1"/>
    </g>
  </g>
</svg>
