<svg xmlns="http://www.w3.org/2000/svg" width="100" height="100" viewBox="0 0 100 100">
  <g id="그룹_181" data-name="그룹 181" transform="translate(-2533 329)">
    <path id="패스_144" data-name="패스 144" d="M0,0H100V100H0Z" transform="translate(2533 -329)" fill="none"/>
    <path id="제외_6" data-name="제외 6" d="M77.1,0H8.762A8.992,8.992,0,0,0,0,9.16V37.59a9,9,0,0,0,8.762,9.19H77.1a9,9,0,0,0,8.762-9.17V9.16A8.992,8.992,0,0,0,77.1,0ZM74.165,11.92a3.591,3.591,0,0,1,3.507,3.673,3.51,3.51,0,1,1-7.013-.013,3.748,3.748,0,0,1,1.028-2.592,3.419,3.419,0,0,1,2.479-1.068ZM17.791,25.67H12.374v5.68H7.988V25.67H2.57V21.08H7.988V15.41h4.386v5.67h5.418ZM63.11,38.96H19.272V7.78H63.081Zm4.51-12.83a3.674,3.674,0,1,1,3.507-3.67A3.591,3.591,0,0,1,67.62,26.13ZM74.194,33a3.508,3.508,0,0,1-3.247-2.261,3.8,3.8,0,0,1,.758-4,3.393,3.393,0,0,1,3.826-.794,3.676,3.676,0,0,1,2.16,3.4,3.748,3.748,0,0,1-1.035,2.6A3.418,3.418,0,0,1,74.165,33Zm6.564-6.87a3.674,3.674,0,1,1,3.507-3.67,3.748,3.748,0,0,1-1.034,2.609,3.418,3.418,0,0,1-2.5,1.061Z" transform="translate(2540 -302)" fill="#545774"/>
  </g>
</svg>
