<svg xmlns="http://www.w3.org/2000/svg" width="100" height="100" viewBox="0 0 100 100">
  <g id="그룹_185" data-name="그룹 185" transform="translate(-2303 206)">
    <rect id="사각형_97" data-name="사각형 97" width="100" height="100" transform="translate(2303 -206)" fill="none"/>
    <g id="그룹_176" data-name="그룹 176" transform="translate(9.823 0.176)">
      <g id="food_bank-black-18dp" transform="translate(2302.766 -196.234)">
        <path id="패스_150" data-name="패스 150" d="M30.823,3C27.828,3,4,23.117,4,23.117V63.351H57.645V23.117S33.818,3,30.823,3ZM32.5,34.852a5.023,5.023,0,0,1-5.029,5.029V53.293H24.117V39.881a5.023,5.023,0,0,1-5.029-5.029V24.793h3.353V34.852h1.676V24.793H27.47V34.852h1.676V24.793H32.5Zm8.382,18.441H37.528V41.558H34.176V31.5a6.725,6.725,0,0,1,6.706-6.706Z" transform="translate(9.411 7.059)" fill="#585a79"/>
      </g>
    </g>
  </g>
</svg>
