<svg xmlns="http://www.w3.org/2000/svg" width="100" height="100" viewBox="0 0 100 100">
  <g id="그룹_197" data-name="그룹 197" transform="translate(-2190 202)">
    <g id="그룹_193" data-name="그룹 193">
      <g id="그룹_192" data-name="그룹 192" transform="translate(4 -1)">
        <g id="desktop_windows-black-18dp" transform="translate(2205 -182)">
          <path id="패스_151" data-name="패스 151" d="M0,0H62.937V62.937H0Z" fill="none"/>
          <path id="패스_152" data-name="패스 152" d="M53.447,2H6.245A5.26,5.26,0,0,0,1,7.245V38.713a5.26,5.26,0,0,0,5.245,5.245H24.6V49.2H19.357v5.245H40.336V49.2H35.091V43.958H53.447a5.26,5.26,0,0,0,5.245-5.245V7.245A5.26,5.26,0,0,0,53.447,2Zm0,36.713H6.245V7.245h47.2Z" transform="translate(1.622 3.245)" fill="#585a79"/>
        </g>
        <rect id="사각형_184" data-name="사각형 184" width="100" height="100" transform="translate(2186 -201)" fill="none"/>
      </g>
    </g>
    <g id="sports_esports-black-18dp" transform="translate(2228 -168)">
      <g id="그룹_194" data-name="그룹 194">
        <rect id="사각형_185" data-name="사각형 185" width="24" height="24" fill="none"/>
      </g>
      <g id="그룹_196" data-name="그룹 196">
        <g id="그룹_195" data-name="그룹 195">
          <path id="패스_153" data-name="패스 153" d="M21.58,16.09,20.49,8.43A4,4,0,0,0,16.53,5H7.47A4,4,0,0,0,3.51,8.43L2.42,16.09A2.545,2.545,0,0,0,4.94,19h0a2.535,2.535,0,0,0,1.8-.75L9,16h6l2.25,2.25a2.552,2.552,0,0,0,1.8.75h0A2.547,2.547,0,0,0,21.58,16.09ZM11,11H9v2H8V11H6V10H8V8H9v2h2Zm4-1a1,1,0,1,1,1-1A1,1,0,0,1,15,10Zm2,3a1,1,0,1,1,1-1A1,1,0,0,1,17,13Z" fill="#585a79"/>
        </g>
      </g>
    </g>
  </g>
</svg>
