<svg xmlns="http://www.w3.org/2000/svg" width="100" height="100" viewBox="0 0 100 100">
  <g id="그룹_177" data-name="그룹 177" transform="translate(-2189 448)">
    <rect id="사각형_80" data-name="사각형 80" width="100" height="100" transform="translate(2189 -448)" fill="none"/>
    <g id="그룹_167" data-name="그룹 167" transform="translate(5 10.139)">
      <g id="bath" transform="translate(2200 -439.139)">
        <path id="패스_134" data-name="패스 134" d="M335.211,115.015a34.171,34.171,0,0,1-4.626-.3h-1.163v-.113a15.979,15.979,0,0,1-14.981-12.334c-.061-.278-.113-.564-.156-.868-2.144-7.2-.521-14.755-.174-16.24v-1.5H373.2V64.786a9.252,9.252,0,0,0-18.349-1.736h4.973v3.472H346.078V63.05h5.251a12.733,12.733,0,0,1,25.344,1.736V83.664H380.8v1.675a60.96,60.96,0,0,1,0,6.944v6.848a15.207,15.207,0,0,1-5.963,12.03,10.494,10.494,0,0,1-7.812,3.35H366.5a16.228,16.228,0,0,1-1.84.1V114.5l-23.869.13A47.738,47.738,0,0,1,335.211,115.015Zm-17.541-14.4a15.2,15.2,0,0,0,3.09,5.685,15.751,15.751,0,0,0,9.469,4.852h3.828c7.768,0,22.133,0,32.271-.1a12.932,12.932,0,0,0,6.18-2.465c3.472-3.836,4.548-11.153,4.817-16.491v-.807H317.583v7.881A11.91,11.91,0,0,0,317.669,100.615Zm39.77-23.435h-3.472V74.4h3.472Zm-5.5,0h-3.472V74.4h3.472Zm8.246-5.494H356.71V68.909h3.472Zm-5.494,0h-3.472V68.909h3.472Zm-5.5,0h-3.472V68.909h3.472Z" transform="translate(-313.195 -52.071)" fill="#565976"/>
      </g>
      <path id="패스_135" data-name="패스 135" d="M316.2,92.84h63.214s4.609,25.327-17.359,25.327-27.619.1-27.619.1-21.517,2.352-18.227-23.357" transform="translate(1886.795 -496.593)" fill="#565976"/>
    </g>
  </g>
</svg>
