coffee.svg<svg xmlns="http://www.w3.org/2000/svg" width="91.395" height="119" viewBox="0 0 91.395 119">
  <g id="그룹_25" data-name="그룹 25" transform="translate(-84.603 -434.777)">
    <rect id="사각형_25" data-name="사각형 25" width="69" height="100" rx="5" transform="translate(91.603 453.777)" fill="#585a79"/>
    <g id="합치기_1" data-name="합치기 1" transform="translate(84.603 434.777)" fill="#fff">
      <path d="M 25.20074462890625 51.5 C 21.77053260803223 51.5 18.97985649108887 48.71401977539062 18.97985649108887 45.28958511352539 C 18.97985649108887 43.63418579101562 19.62502288818359 42.07697677612305 20.79652214050293 40.90480804443359 L 20.85525512695312 40.84604263305664 L 20.89182281494141 40.77143096923828 C 21.85250091552734 38.81166458129883 22.339599609375 36.6630859375 22.339599609375 34.3853645324707 C 22.339599609375 31.59360885620117 21.5347785949707 28.81675338745117 20.07340049743652 26.56629753112793 L 19.92554473876953 26.33860969543457 L 19.65405464172363 26.33860969543457 L 10.08056640625 26.33860969543457 L 8.899232864379883 26.33860969543457 L 8.899232864379883 26.27602005004883 L 8.481910705566406 26.20605278015137 C 6.274822235107422 25.83603096008301 4.254111289978027 24.69093132019043 2.79200005531311 22.98170852661133 C 1.313977718353271 21.25388717651367 0.5 19.04918670654297 0.5 16.77375411987305 C 0.5 11.50050926208496 4.797821998596191 7.210409164428711 10.08056640625 7.210409164428711 C 11.42875576019287 7.210409164428711 12.73208904266357 7.484331607818604 13.95435523986816 8.024576187133789 C 15.13541126251221 8.546608924865723 16.18412208557129 9.290520668029785 17.07136726379395 10.2356538772583 L 17.62193298339844 10.82214260101318 L 17.90413284301758 10.0688533782959 C 18.58074378967285 8.262720108032227 19.77614402770996 6.71748685836792 21.36109924316406 5.60020923614502 C 22.98123359680176 4.458120346069336 24.88984489440918 3.854453563690186 26.88061141967773 3.854453563690186 C 29.02103424072266 3.854453563690186 31.0450553894043 4.543464660644531 32.73385620117188 5.847009181976318 L 33.20809936523438 6.213075637817383 L 33.48343276977539 5.6809983253479 C 35.13712310791016 2.485242605209351 38.40078735351562 0.4999980926513672 42.00078964233398 0.4999980926513672 C 45.28450012207031 0.4999980926513672 48.30303192138672 2.150975942611694 50.07536697387695 4.916353702545166 L 50.3301887512207 5.313942432403564 L 50.74166488647461 5.082220077514648 C 52.16803359985352 4.279009342193604 53.79306793212891 3.854453563690186 55.44110107421875 3.854453563690186 C 60.02136611938477 3.854453563690186 63.97644424438477 7.108108997344971 64.84537506103516 11.59093189239502 L 65.08881378173828 12.84678745269775 L 65.76152038574219 11.75872039794922 C 66.60477447509766 10.39483165740967 67.78725433349609 9.254420280456543 69.18112182617188 8.460776329040527 C 70.61773681640625 7.642776012420654 72.25674438476562 7.210409164428711 73.92095184326172 7.210409164428711 C 79.20285797119141 7.210409164428711 83.5 11.50050926208496 83.5 16.77375411987305 C 83.5 22.04783058166504 79.20285797119141 26.33860969543457 73.92095184326172 26.33860969543457 L 30.7458438873291 26.33860969543457 L 30.47437858581543 26.33860969543457 L 30.32652282714844 26.56626510620117 C 28.86524391174316 28.81619834899902 28.06048965454102 31.59307670593262 28.06048965454102 34.3853645324707 C 28.06048965454102 36.62932968139648 28.56122207641602 38.83764266967773 29.5085563659668 40.77157592773438 L 29.54512214660645 40.84622192382812 L 29.60387802124023 40.90502166748047 C 30.77513313293457 42.07727432250977 31.420166015625 43.6344108581543 31.420166015625 45.28958511352539 C 31.420166015625 48.71401977539062 28.6301441192627 51.5 25.20074462890625 51.5 Z" stroke="none"/>
      <path d="M 25.20074462890625 51 C 28.35444450378418 51 30.920166015625 48.43832015991211 30.920166015625 45.28958511352539 C 30.920166015625 43.76788711547852 30.32708930969238 42.33625411987305 29.25016593933105 41.25843048095703 L 29.13266754150391 41.14081954956055 L 29.05953407287598 40.99151992797852 C 28.07885551452637 38.98950958251953 27.56048965454102 36.70514297485352 27.56048965454102 34.3853645324707 C 27.56048965454102 31.4975528717041 28.39389991760254 28.62396430969238 29.90719985961914 26.29393196105957 L 30.20292282104492 25.83860969543457 L 30.7458438873291 25.83860969543457 L 73.92095184326172 25.83860969543457 C 78.92715454101562 25.83860969543457 83 21.77213096618652 83 16.77375411987305 C 83 11.77620887756348 78.92715454101562 7.710409164428711 73.92095184326172 7.710409164428711 C 72.34334564208984 7.710409164428711 70.78988647460938 8.120131492614746 69.42852020263672 8.895276069641113 C 68.10715484619141 9.647642135620117 66.98619079589844 10.72873115539551 66.18681335449219 12.0216646194458 L 64.84137725830078 14.19777584075928 L 64.35452270507812 11.68608665466309 C 63.53105545043945 7.437853813171387 59.78242111206055 4.354453563690186 55.44110107421875 4.354453563690186 C 53.87883377075195 4.354453563690186 52.3386344909668 4.756764888763428 50.98701095581055 5.517898082733154 L 50.16404342651367 5.981331348419189 L 49.65441131591797 5.186142444610596 C 47.97445678710938 2.564909219741821 45.11328887939453 0.9999980926513672 42.00078964233398 0.9999980926513672 C 38.58845520019531 0.9999980926513672 35.49494552612305 2.881698131561279 33.9275016784668 5.910787105560303 L 33.37684631347656 6.974942684173584 L 32.4283447265625 6.242820262908936 C 30.82785606384277 5.007442474365234 28.90947723388672 4.354453563690186 26.88061141967773 4.354453563690186 C 24.99355506896973 4.354453563690186 23.18455505371094 4.92654275894165 21.64918899536133 6.008875846862793 C 20.14668846130371 7.068031311035156 19.01357841491699 8.532598495483398 18.37235641479492 10.24425411224365 L 17.80795478820801 11.75084209442139 L 16.70683288574219 10.57786464691162 C 15.8657112121582 9.681864738464355 14.87163352966309 8.976675987243652 13.75222206115723 8.481898307800293 C 12.59403324127197 7.96997594833374 11.35871124267578 7.710409164428711 10.08056640625 7.710409164428711 C 5.073522090911865 7.710409164428711 1 11.77620887756348 1 16.77375411987305 C 1 18.93009757995605 1.771344423294067 21.01936531066895 3.171955585479736 22.65668678283691 C 4.557910919189453 24.27688789367676 6.473044395446777 25.3622875213623 8.564578056335449 25.71294212341309 L 9.31413745880127 25.83860969543457 L 10.08056640625 25.83860969543457 L 19.65405464172363 25.83860969543457 L 20.197021484375 25.83860969543457 L 20.49274444580078 26.29398727416992 C 22.00613403320312 28.62454223632812 22.839599609375 31.49810981750488 22.839599609375 34.3853645324707 C 22.839599609375 36.70686340332031 22.32132148742676 38.99123001098633 21.34078979492188 40.99150848388672 L 21.26764488220215 41.14072036743164 L 21.15017700195312 41.25825500488281 C 20.07305526733398 42.33599853515625 19.47985649108887 43.7676887512207 19.47985649108887 45.28958511352539 C 19.47985649108887 48.43832015991211 22.04623413085938 51 25.20074462890625 51 M 25.20074462890625 52 C 21.48876571655273 52 18.47985649108887 48.99579620361328 18.47985649108887 45.28958511352539 C 18.47985649108887 43.43996429443359 19.22985649108887 41.76506423950195 20.44286727905273 40.55135345458984 C 21.36023330688477 38.679931640625 21.839599609375 36.57774353027344 21.839599609375 34.3853645324707 C 21.839599609375 31.65462112426758 21.0584774017334 29.0013427734375 19.65405464172363 26.83860969543457 L 10.08056640625 26.83860969543457 L 8.399232864379883 26.83860969543457 L 8.399232864379883 26.69917678833008 C 3.632388830184937 25.89998626708984 0 21.76029777526855 0 16.77375411987305 C 0 11.21520900726318 4.51336669921875 6.710409164428711 10.08056640625 6.710409164428711 C 12.98168849945068 6.710409164428711 15.59679985046387 7.93433141708374 17.43591117858887 9.893442153930664 C 18.86687850952148 6.073687076568604 22.55566596984863 3.354453563690186 26.88061141967773 3.354453563690186 C 29.20007705688477 3.354453563690186 31.33624458312988 4.136609077453613 33.03936767578125 5.45120906829834 C 34.71490097045898 2.213242530822754 38.098876953125 -1.9073486328125e-06 42.00078964233398 -1.9073486328125e-06 C 45.570068359375 -1.9073486328125e-06 48.70551300048828 1.852331399917603 50.49633407592773 4.646553516387939 C 51.95733261108398 3.82383131980896 53.64422225952148 3.354453563690186 55.44110107421875 3.354453563690186 C 60.34814453125 3.354453563690186 64.4371337890625 6.857309341430664 65.33624267578125 11.49578666687012 C 67.11163330078125 8.624242782592773 70.29254150390625 6.710409164428711 73.92095184326172 6.710409164428711 C 79.48822021484375 6.710409164428711 84 11.21520900726318 84 16.77375411987305 C 84 22.33229827880859 79.48822021484375 26.83860969543457 73.92095184326172 26.83860969543457 L 30.7458438873291 26.83860969543457 C 29.34143257141113 29.00098609924316 28.56048965454102 31.6534423828125 28.56048965454102 34.3853645324707 C 28.56048965454102 36.57634353637695 29.04022216796875 38.67888641357422 29.95757865905762 40.55162048339844 C 31.17022132873535 41.76529693603516 31.920166015625 43.440185546875 31.920166015625 45.28958511352539 C 31.920166015625 48.99579620361328 28.9112548828125 52 25.20074462890625 52 Z" stroke="none" fill="#585a79"/>
    </g>
    <path id="패스_51" data-name="패스 51" d="M1.346,0-2,66.916" transform="translate(149.734 479.332)" fill="none" stroke="#fff" stroke-linecap="round" stroke-width="1"/>
    <path id="패스_48" data-name="패스 48" d="M0,0,3.346,66.916" transform="translate(100.893 479.332)" fill="none" stroke="#fff" stroke-linecap="round" stroke-width="1"/>
    <path id="패스_49" data-name="패스 49" d="M0,0,1.673,66.916" transform="translate(117.622 479.332)" fill="none" stroke="#fff" stroke-linecap="round" stroke-width="1"/>
    <path id="패스_50" data-name="패스 50" d="M.673,0-1,66.916" transform="translate(133.678 479.332)" fill="none" stroke="#fff" stroke-linecap="round" stroke-width="1"/>
    <path id="패스_52" data-name="패스 52" d="M-327.994,430.745s25.316-7.575,0,34.926c-.033.146,0,6.238,0,6.238s35.363-48.022,0-45.4Z" transform="translate(488.275 44.406)" fill="#585a79"/>
  </g>
</svg>
