<svg xmlns="http://www.w3.org/2000/svg" width="100" height="100" viewBox="0 0 100 100">
  <g id="그룹_179" data-name="그룹 179" transform="translate(-2420 448)">
    <rect id="사각형_86" data-name="사각형 86" width="100" height="100" transform="translate(2420 -448)" fill="none"/>
    <g id="그룹_169" data-name="그룹 169" transform="translate(2.49 15.051)">
      <rect id="사각형_90" data-name="사각형 90" width="3.2" height="8.41" transform="translate(2494.84 -395.6)" fill="#ea736d"/>
      <rect id="사각형_91" data-name="사각형 91" width="3.04" height="11.21" transform="translate(2491.91 -397)" fill="none" stroke="#565976" stroke-width="0.5"/>
      <path id="패스_127" data-name="패스 127" d="M622.9,91.51l-.21-.2a4.921,4.921,0,0,1-.6-.61,8.53,8.53,0,0,1-1.68-2.87,9.381,9.381,0,0,1-.34-4.67,9.268,9.268,0,0,1,.89-2.54,10.213,10.213,0,0,1,1.6-2.2,7,7,0,0,0,1.23-1.63,7.66,7.66,0,0,0,.7-1.78,7.31,7.31,0,0,0-1-5.72c-.34-.51-.56-.79-.56-.79h-.05a1,1,0,0,1,.14-1.32.93.93,0,0,1,1.23.05l.23.22a5.64,5.64,0,0,1,.64.65,8.451,8.451,0,0,1,1.65,2.84,9.381,9.381,0,0,1,.34,4.67,9.12,9.12,0,0,1-.89,2.55,10.67,10.67,0,0,1-1.59,2.19,7.491,7.491,0,0,0-1.24,1.63,7.66,7.66,0,0,0-.7,1.78,7.48,7.48,0,0,0,0,3.43,7.67,7.67,0,0,0,1,2.26,5.511,5.511,0,0,0,.45.63l.17.23a.94.94,0,0,1-.18,1.31,1,1,0,0,1-1.23-.11Z" transform="translate(1879.2 -491.21)" fill="#565976"/>
      <path id="패스_128" data-name="패스 128" d="M617.71,75.7l-.21-.19a5.089,5.089,0,0,1-.61-.62A8.47,8.47,0,0,1,615.22,72a9.31,9.31,0,0,1-.34-4.68,9.062,9.062,0,0,1,.89-2.54,10.521,10.521,0,0,1,1.59-2.2A7.532,7.532,0,0,0,618.6,61a7.123,7.123,0,0,0,.69-1.79,7.22,7.22,0,0,0,0-3.43,7.548,7.548,0,0,0-1-2.29c-.34-.51-.57-.79-.57-.79h0a.93.93,0,0,1,.14-1.31.92.92,0,0,1,1.22,0l.24.22a5.731,5.731,0,0,1,.63.65,8.451,8.451,0,0,1,1.65,2.84,9.3,9.3,0,0,1,.35,4.68A9.5,9.5,0,0,1,621,62.3a10.332,10.332,0,0,1-1.6,2.19,7.821,7.821,0,0,0-1.24,1.63,8,8,0,0,0-.69,1.79,7.44,7.44,0,0,0,0,3.42,7.672,7.672,0,0,0,1,2.26,6.01,6.01,0,0,0,.44.63l.18.23a.94.94,0,0,1-1.39,1.25Z" transform="translate(1879.2 -491.21)" fill="#565976"/>
      <path id="패스_129" data-name="패스 129" d="M351.64,70H289.51V81.21h63.53V70Z" transform="translate(2139 -467)" fill="#565976" stroke="#565976" stroke-width="0.5"/>
    </g>
  </g>
</svg>
