<svg xmlns="http://www.w3.org/2000/svg" width="100" height="100" viewBox="0 0 100 100">
  <g id="그룹_184" data-name="그룹 184" transform="translate(-2303 329)">
    <rect id="사각형_82" data-name="사각형 82" width="100" height="100" transform="translate(2303 -329)" fill="none"/>
    <g id="그룹_173" data-name="그룹 173" transform="translate(-106.01 13.703)">
      <path id="패스_117" data-name="패스 117" d="M564.144,189.011a8.783,8.783,0,0,1,6.532-14.669,1.75,1.75,0,0,1,.385,0,11.715,11.715,0,0,1,22.711,0,1.654,1.654,0,0,1,.377,0,8.788,8.788,0,0,1,6.547,14.669" transform="translate(1876.987 -491.21)" fill="none" stroke="#565976" stroke-width="1"/>
      <path id="패스_123" data-name="패스 123" d="M589.651,249.761a1.321,1.321,0,0,1-1.321-1.314V233.771a1.321,1.321,0,1,1,2.642,0v14.676a1.321,1.321,0,0,1-1.321,1.314Z" transform="translate(1869.735 -509.564)" fill="#565976"/>
      <path id="패스_124" data-name="패스 124" d="M595.161,255.3H577.538a1.321,1.321,0,0,1,0-2.635h17.609a1.321,1.321,0,1,1,0,2.635Z" transform="translate(1873.03 -515.106)" fill="#565976"/>
      <path id="패스_125" data-name="패스 125" d="M606.563,197.89c-.639,16.164-12.2,26.406-26.377,26.406s-25.731-10.241-26.377-26.406Z" transform="translate(1879.2 -500.089)" fill="#565976"/>
    </g>
  </g>
</svg>
