<svg xmlns="http://www.w3.org/2000/svg" width="100" height="100" viewBox="0 0 100 100">
  <g id="그룹_180" data-name="그룹 180" transform="translate(-2533 448)">
    <rect id="사각형_87" data-name="사각형 87" width="100" height="100" transform="translate(2533 -448)" fill="none"/>
    <g id="그룹_170" data-name="그룹 170" transform="translate(3.07 4)">
      <path id="패스_136" data-name="패스 136" d="M731.264,104.18H741.82a1.971,1.971,0,0,0,1.88-2.05V98.5h0a2.061,2.061,0,0,0-.78-1.66h0l-1.44-1.13v-.84a5.851,5.851,0,0,0-2.5-5.15,11.754,11.754,0,0,0-4.586-1.69l-11.611-2.3L712.83,74.88a.582.582,0,0,0-.073-.08c-.715-.72-2.32-1.28-4.43-1.7v3.69a4.62,4.62,0,0,1,1.834,1h0l7.172,7.81h-9.006v18.61h3.953a11.625,11.625,0,0,1-.064-1.26,10.676,10.676,0,0,1,4.692-9.3,8.888,8.888,0,0,1,9.737,0,10.676,10.676,0,0,1,4.692,9.3,9.662,9.662,0,0,1-.073,1.23ZM708.336,73.1a68.08,68.08,0,0,0-21.745,0v3.68c2.348-.73,5.879-.62,9-.49v9.28h-9v18.61h21.736V85.57h-9V76.32h.44c3-.08,6.328-.18,8.557.49Zm-21.745,0a9.57,9.57,0,0,0-4.43,1.7h0l-.064.08L672.331,85.5h-.165c-4.466-.41-11.629-1.07-12.207,6.37l-.312,4-1.183,1h0a2.12,2.12,0,0,0-.734,1.62h0v3.63a1.976,1.976,0,0,0,1.834,2.05h4.026a11.609,11.609,0,0,1-.064-1.26,10.676,10.676,0,0,1,4.693-9.3,8.888,8.888,0,0,1,9.737,0,10.676,10.676,0,0,1,4.693,9.3,9.665,9.665,0,0,1-.073,1.26l4.017.01V85.57H677.54l7.163-7.81h0a4.8,4.8,0,0,1,1.889-.98Z" transform="translate(1879.2 -491.21)" fill="#565976"/>
      <path id="패스_137" data-name="패스 137" d="M726.841,94.54a7.559,7.559,0,0,1,6.876,4.1,9.036,9.036,0,0,1,0,8.547,7.559,7.559,0,0,1-6.876,4.1v-4.36a4.015,4.015,0,0,0,0-8Zm0,16.75a7.559,7.559,0,0,1-6.877-4.1,9.036,9.036,0,0,1,0-8.547,7.559,7.559,0,0,1,6.877-4.1V98.9a4.015,4.015,0,0,0,0,8Z" transform="translate(1874.131 -491.21)" fill="#565976"/>
      <path id="패스_138" data-name="패스 138" d="M727.366,100.57a2.218,2.218,0,0,1,2.137,1.887,2.412,2.412,0,0,1-1.286,2.65,2.067,2.067,0,0,1-2.633-.864,2.522,2.522,0,0,1,.269-2.984,2.035,2.035,0,0,1,1.513-.69Z" transform="translate(1873.606 -491.21)" fill="#565976"/>
      <path id="패스_139" data-name="패스 139" d="M673.8,94.54a7.559,7.559,0,0,1,6.877,4.1,9.036,9.036,0,0,1,0,8.547,7.559,7.559,0,0,1-6.877,4.1v-4.36a4.015,4.015,0,0,0,0-8Zm0,0h0V98.9h0a4.015,4.015,0,0,0,0,8h0v4.36h0a7.559,7.559,0,0,1-6.876-4.1,9.036,9.036,0,0,1,0-8.547,7.559,7.559,0,0,1,6.876-4.1Z" transform="translate(1878.527 -491.21)" fill="#565976"/>
      <path id="패스_140" data-name="패스 140" d="M674.326,100.57a2.218,2.218,0,0,1,2.137,1.887,2.412,2.412,0,0,1-1.286,2.65,2.067,2.067,0,0,1-2.633-.864,2.522,2.522,0,0,1,.269-2.984,2.035,2.035,0,0,1,1.513-.69Z" transform="translate(1878.002 -491.21)" fill="#565976"/>
      <path id="사각형_93" data-name="사각형 93" d="M6,0H9.591a6,6,0,0,1,6,6V6a0,0,0,0,1,0,0H0A0,0,0,0,1,0,6V6A6,6,0,0,1,6,0Z" transform="translate(2569.093 -424)" fill="#565976"/>
    </g>
  </g>
</svg>
