<svg xmlns="http://www.w3.org/2000/svg" width="100" height="100" viewBox="0 0 100 100">
  <g id="그룹_186" data-name="그룹 186" transform="translate(-2420 206)">
    <rect id="사각형_94" data-name="사각형 94" width="100" height="100" transform="translate(2420 -206)" fill="none"/>
    <g id="그룹_175" data-name="그룹 175" transform="translate(31.093 12.191)">
      <path id="제외_7" data-name="제외 7" d="M53.8,51.237H0V44.209H10.477a3.022,3.022,0,0,0,.969.158,2.269,2.269,0,0,0,1.681-.675c.721-.733,1.071-2.032,1.041-3.861-.094-5.739,0-15.424,0-15.521-.038.008-3.979.842-4.832,2.256a.985.985,0,0,0-.124.8c-1.313-.53-2.294-5.555-1.539-10.164.436-2.659,1.811-7.158,6.126-7.413H49.018a37.228,37.228,0,0,0,3.341-3.733C53.8,4.179,55.374,1.6,54.651,0A4.78,4.78,0,0,1,56.99,1.684a12.435,12.435,0,0,1,1.857,3.253,21.519,21.519,0,0,1,1.5,8.663,12.325,12.325,0,0,1-1.465,5.7,6.076,6.076,0,0,1-4.257,3.051V39.654a11.658,11.658,0,0,1,2.048,1.618,6.031,6.031,0,0,1,2.024,4.1c-.02,2.082-1.667,4.056-4.894,5.867ZM18.094,23.19v17h32v-17Z" transform="translate(2408.907 -194.191)" fill="#585a79"/>
      <path id="패스_146" data-name="패스 146" d="M0,0H2.5L1.878,12.5H.63Z" transform="translate(2431 -171)" fill="#585a79"/>
      <path id="패스_147" data-name="패스 147" d="M0,0H2.5L1.878,12.5H.63Z" transform="translate(2438 -171)" fill="#585a79"/>
      <path id="패스_148" data-name="패스 148" d="M0,0H2.5L1.878,12.5H.63Z" transform="translate(2445 -171)" fill="#585a79"/>
      <path id="패스_149" data-name="패스 149" d="M0,0H2.5L1.878,12.5H.63Z" transform="translate(2452 -171)" fill="#585a79"/>
    </g>
  </g>
</svg>
