<svg xmlns="http://www.w3.org/2000/svg" width="103.575" height="75.82" viewBox="0 0 103.575 75.82">
  <g id="그룹_27" data-name="그룹 27" transform="translate(-60.314 -274.024)">
    <path id="사각형_18" data-name="사각형 18" d="M2,0H76a0,0,0,0,1,0,0V21a0,0,0,0,1,0,0H2a2,2,0,0,1-2-2V2A2,2,0,0,1,2,0Z" transform="translate(60.314 328.843)" fill="#585a79"/>
    <rect id="사각형_19" data-name="사각형 19" width="4" height="21" transform="translate(139.314 328.843)" fill="#585a79"/>
    <path id="사각형_20" data-name="사각형 20" d="M0,0H10a2,2,0,0,1,2,2V19a2,2,0,0,1-2,2H0a0,0,0,0,1,0,0V0A0,0,0,0,1,0,0Z" transform="translate(146.314 328.843)" fill="#585a79"/>
    <path id="패스_40" data-name="패스 40" d="M104.574,283.515s.828-12.229-22.365-13.915-29.272-19.372-24.577-31.878" transform="translate(42.978 41.795)" fill="none" stroke="#585a79" stroke-linecap="round" stroke-width="2"/>
    <path id="패스_41" data-name="패스 41" d="M0,0S26.693.859,23.918,15.186c10.016-.992,25.6,13.395,18.687,31.777" transform="matrix(0.998, 0.07, -0.07, 0.998, 118.501, 275.125)" fill="none" stroke="#585a79" stroke-linecap="round" stroke-width="2"/>
  </g>
</svg>
