<svg height="512" viewBox="0 0 60 60" width="512" xmlns="http://www.w3.org/2000/svg"><g id="Page-1" fill="none" fill-rule="evenodd"><g id="020---Scooter" fill="rgb(0,0,0)" fill-rule="nonzero"><path id="Shape" d="m7 50c-1.65685425 0-3 1.3431458-3 3s1.34314575 3 3 3 3-1.3431458 3-3-1.34314575-3-3-3zm0 4c-.55228475 0-1-.4477153-1-1s.44771525-1 1-1 1 .4477153 1 1-.44771525 1-1 1z"/><path id="Shape" d="m58.977 48.977c1.0027904-1.0010659 1.3030697-2.5079834.760597-3.8169697-.5424726-1.3089863-1.8206571-2.1617537-3.237597-2.1600303h-3.5c-.9281694.0014906-1.818274.3691034-2.477 1.023l-4.977 4.977h-32.81c-.2781416-.3964135-.5964987-.7630268-.95-1.094l1.5-10.331c.1376191-.9569302-.0804847-1.9311035-.613-2.738l3.927-26.837h6.112c.7878815.64190939 1.7717432.99480096 2.788 1 2.4852814 0 4.5-2.01471863 4.5-4.5s-2.0147186-4.5-4.5-4.5c-1.0179749.00405758-2.0037853.35701513-2.793 1h-11.207c-.9282342.00116554-1.81845748.36882741-2.477 1.023-.87792387.87736756-1.2238172 2.15498959-.90842188 3.355427.31539531 1.2004374 1.24461737 2.1430437 2.44042188 2.475573l-3.819 26.122c-.73777504.6235183-1.22304888 1.4945227-1.365 2.45l-1.5 10.322c-2.73967512 1.3673678-4.27139258 4.357852-3.78007816 7.3801234.49131443 3.0222715 2.89141851 5.3735806 5.92314265 5.802723 3.03172415.4291425 5.99012071-1.1636675 7.30093551-3.9308464h33.385c1.1238278 2.3661377 3.4767217 3.9049055 6.0949304 3.9860201 2.6182088.0811146 5.0618439-1.3090521 6.3299862-3.6010843 1.2681423-2.2920323 1.1477297-5.1008428-.3119166-7.2759358.051-.047.114-.082.164-.132zm-48.1-15.651c-.3105094-.1360925-.6371649-.2318711-.972-.285-.33529434-.0429891-.67470566-.0429891-1.01 0l3.66-25.041h2.019zm14.623-31.326c1.3807119 0 2.5 1.11928813 2.5 2.5s-1.1192881 2.5-2.5 2.5-2.5-1.11928813-2.5-2.5 1.1192881-2.5 2.5-2.5zm-15.5 2.5c-.00160289-.39831396.1559176-.78077685.4375704-1.06242963s.6641156-.43917326 1.0624296-.43757037l9.776-.00001211c-.1777342.48037626-.2711085.98784491-.276 1.50001211.0048915.5121672.0982658 1.01963585.276 1.5h-9.776c-.8284271 0-1.5-.67157288-1.5-1.5zm-2.65 32.214c.15795344-1.0937999 1.17270005-1.8524534 2.2665-1.6945 1.0937999.1579534 1.8524534 1.1727001 1.6945 2.2665l-1.364 9.373c-1.23140345-.5879531-2.61202041-.7891188-3.96-.577zm-.35 21.286c-2.76142375 0-5-2.2385763-5-5s2.23857625-5 5-5 5 2.2385763 5 5c-.0033061 2.7600532-2.23994685 4.9966939-5 5zm6.705-7h32.255c.2651948-.0000566.5195073-.1054506.707-.293l5.271-5.27c.28257-.2799407.6642406-.4369934 1.062-.437h3.5c.6081495-.0019024 1.1572631.3635818 1.3902494.9253351.2329863.5617534.103731 1.2085899-.3272494 1.6376649-.1594381.1566416-.3507901.2770467-.561.353-.1608491.0555577-.3298263.0839458-.5.084h-2.462c-.2651948.0000566-.5195073.1054506-.707.293l-5.271 5.27c-.2229006.2199911-.5075393.3668451-.816.421-.079.008-.166.016-.246.016h-33.08c.1566148-1.0033712.0830959-2.0292164-.215-3zm40.295 2c0 .5522847-.4477153 1-1 1s-1-.4477153-1-1 .4477153-1 1-1 1 .4477153 1 1zm-1 5c-1.7641919-.0025336-3.3958185-.9367929-4.291-2.457.280866-.1523636.5393137-.3428342.768-.566l.777-.777c.5353987 1.2344269 1.827209 1.9613849 3.1602434 1.7784069s2.3811855-1.2311291 2.5641635-2.5641635-.54398-2.6248447-1.7784069-3.1602434l.254-.254h2.046c.1466226-.0033021.2929012-.0156589.438-.037.6857309.8639484 1.059911 1.9339908 1.062 3.037-.0033061 2.7600532-2.2399468 4.9966939-5 5z"/></g></g></svg>